<svg width="36" height="40" viewBox="0 0 36 40" fill="none" xmlns="http://www.w3.org/2000/svg">
<path d="M3.20978 36.0015L0 0H35.27L32.0568 35.9958L17.6134 40L3.20978 36.0015Z" fill="#E44D26"/>
<path d="M17.635 36.9394L29.3059 33.7037L32.0518 2.94365H17.635V36.9394Z" fill="#F16529"/>
<path d="M17.635 16.2961H11.7922L11.3887 11.7746H17.635V7.35913H6.56317L6.66886 8.54373L7.75409 20.7115H17.635V16.2961ZM17.635 27.7634L17.6156 27.7686L12.6981 26.4408L12.3838 22.9192H7.95138L8.56998 29.8521L17.6147 32.363L17.635 32.3573V27.7634Z" fill="#EBEBEB"/>
<path d="M17.6197 16.2961V20.7115H23.0568L22.5443 26.4379L17.6197 27.7671V32.3608L26.6716 29.8521L26.738 29.1061L27.7756 17.4817L27.8833 16.2961H26.6935H17.6197ZM17.6197 7.35913V11.7746H28.2851L28.3737 10.7821L28.5748 8.54373L28.6804 7.35913H17.6197Z" fill="white"/>
</svg>
