<svg width="42" height="40" viewBox="0 0 42 40" fill="none" xmlns="http://www.w3.org/2000/svg">
<g clip-path="url(#clip0_4_28)">
<path d="M34.7215 0H8.22577C4.21345 0 0.960815 3.25263 0.960815 7.26496V32.735C0.960815 36.7474 4.21345 40 8.22577 40H34.7215C38.7338 40 41.9865 36.7474 41.9865 32.735V7.26496C41.9865 3.25263 38.7338 0 34.7215 0Z" fill="#330000"/>
<path d="M20.8412 24.0048H14.4839L13.1902 28.0229C13.1727 28.0962 13.13 28.1611 13.0698 28.2063C13.0095 28.2516 12.9353 28.2744 12.86 28.2708H9.63999C9.45651 28.2708 9.39229 28.1698 9.44734 27.9679L14.9516 12.1156C15.0068 11.9504 15.0619 11.7624 15.1169 11.5515C15.1888 11.1843 15.2256 10.8111 15.2268 10.4369C15.223 10.4107 15.2254 10.384 15.2338 10.3589C15.2421 10.3338 15.2562 10.3109 15.2749 10.2922C15.2937 10.2735 15.3165 10.2594 15.3416 10.2511C15.3667 10.2427 15.3934 10.2403 15.4196 10.2441H19.7954C19.9236 10.2441 19.997 10.29 20.0155 10.3817L26.2631 27.9954C26.318 28.1791 26.2629 28.2708 26.0978 28.2706H22.52C22.4585 28.2774 22.3967 28.2616 22.3461 28.2262C22.2954 28.1907 22.2594 28.138 22.2448 28.078L20.8412 24.0048ZM15.4745 20.5371H19.8229C19.7128 20.1704 19.5844 19.7576 19.4376 19.2986C19.2906 18.8403 19.1347 18.3495 18.9699 17.8263L18.4743 16.2576C18.3092 15.7347 18.1579 15.2301 18.0203 14.7439C17.8827 14.258 17.7588 13.8131 17.6489 13.4091H17.6212C17.4663 14.1524 17.2735 14.8872 17.0434 15.6108C16.7862 16.4364 16.5247 17.2804 16.2588 18.1427C15.9927 19.0054 15.7313 19.8035 15.4745 20.5371ZM29.9779 13.1614C29.6972 13.1726 29.4173 13.1245 29.1565 13.0202C28.8956 12.9159 28.6598 12.7577 28.4643 12.5559C28.2694 12.3454 28.118 12.0984 28.0188 11.8292C27.9197 11.56 27.8747 11.2738 27.8865 10.9872C27.8765 10.7034 27.9265 10.4207 28.0331 10.1575C28.1398 9.89429 28.3008 9.65657 28.5056 9.45984C28.7085 9.26513 28.9479 9.11257 29.21 9.01099C29.4722 8.90941 29.7519 8.86082 30.033 8.86804C30.6936 8.86804 31.212 9.06531 31.588 9.45984C31.7778 9.66483 31.9254 9.90525 32.0222 10.1673C32.119 10.4294 32.1631 10.708 32.1521 10.9872C32.1636 11.275 32.1172 11.5621 32.0156 11.8316C31.9139 12.1011 31.7592 12.3474 31.5605 12.5559C31.3528 12.7606 31.105 12.9201 30.8326 13.0243C30.5602 13.1285 30.2692 13.1752 29.9779 13.1614ZM28.079 27.9956V14.84C28.079 14.6749 28.1521 14.5923 28.2991 14.5923H31.6843C31.8309 14.5923 31.9044 14.6749 31.9046 14.8402V27.9952C31.9046 28.1789 31.8312 28.2707 31.6843 28.2704H28.3267C28.1616 28.2704 28.0791 28.1787 28.079 27.9952V27.9956Z" fill="#FF9A00"/>
</g>
<defs>
<clipPath id="clip0_4_28">
<rect width="41.0256" height="40" fill="white" transform="translate(0.960815)"/>
</clipPath>
</defs>
</svg>
