<svg width="36" height="40" viewBox="0 0 36 40" fill="none" xmlns="http://www.w3.org/2000/svg">
<path d="M35.4893 0L32.2807 35.9958L17.8581 40L3.47514 36.0015L0.269974 0H35.4893Z" fill="#264DE4"/>
<path d="M29.5338 33.7037L32.2757 2.94365H17.8796V36.9394L29.5338 33.7037Z" fill="#2965F1"/>
<path d="M7.61776 16.2961L8.01294 20.7115H17.8796V16.2961H7.61776ZM17.8796 7.35913H6.82373L7.22453 11.7746H17.8796V7.35913ZM17.8796 32.3573V27.7634L17.8603 27.7686L12.9499 26.4408L12.636 22.9192H8.20994L8.82765 29.8521L17.8593 32.363L17.8796 32.3573Z" fill="#EBEBEB"/>
<path d="M23.2937 20.7115L22.7819 26.4379L17.8644 27.7671V32.3608L26.9032 29.8521L26.9696 29.1061L28.0056 17.4817L28.1132 16.2961L28.9092 7.35913H17.8644V11.7746H24.0772L23.676 16.2961H17.8644V20.7115H23.2937Z" fill="white"/>
</svg>
