<svg width="41" height="40" viewBox="0 0 41 40" fill="none" xmlns="http://www.w3.org/2000/svg">
<g clip-path="url(#clip0_4_32)">
<path d="M0.489258 0V40H40.4893V0H0.489258ZM21.9178 31.0714C21.9178 34.9652 19.6178 36.8634 16.2884 36.8634C13.2812 36.8634 11.5357 35.3063 10.65 33.4268L13.7107 31.5741C14.3009 32.6214 14.7491 33.5071 16.0375 33.5071C17.1089 33.5071 17.9893 33.0241 17.9893 31.1446V18.5714H21.9178V31.0714ZM30.7884 36.7741C27.2982 36.7741 25.0428 35.1991 23.9419 33.0241L27.0071 31.25C27.8107 32.5661 28.8598 33.4429 30.7125 33.4429C32.2696 33.4429 33.1741 32.7536 33.1741 31.6795C33.1741 30.3911 32.2428 29.9348 30.5241 29.1795L29.5848 28.7759C26.8723 27.6223 25.0741 26.1723 25.0741 23.1107C25.0741 20.292 27.2214 18.233 30.5777 18.233C32.9678 18.233 34.6848 18.9759 35.9214 21.1509L32.9893 23.0357C32.3446 21.8813 31.65 21.4286 30.5732 21.4286C29.4723 21.4286 28.7741 22.1268 28.7741 23.0357C28.7741 24.1634 29.4723 24.6196 31.083 25.3179L32.0223 25.7205C35.2178 27.0902 37.0169 28.4884 37.0169 31.6277C37.0178 35.0116 34.3598 36.7741 30.7884 36.7741Z" fill="#FFC928"/>
</g>
<defs>
<clipPath id="clip0_4_32">
<rect width="40" height="40" fill="white" transform="translate(0.489258)"/>
</clipPath>
</defs>
</svg>
