<svg width="42" height="40" viewBox="0 0 42 40" fill="none" xmlns="http://www.w3.org/2000/svg">
<g clip-path="url(#clip0_4_41)">
<path d="M34.6959 0H8.20014C4.18781 0 0.935181 3.25263 0.935181 7.26496V32.735C0.935181 36.7474 4.18781 40 8.20014 40H34.6959C38.7082 40 41.9608 36.7474 41.9608 32.735V7.26496C41.9608 3.25263 38.7082 0 34.6959 0Z" fill="#001E36"/>
<path d="M10.1732 28.0504V10.4643C10.1732 10.3361 10.2282 10.2716 10.3383 10.2716C10.6314 10.2716 10.8993 10.2673 11.3031 10.2579C11.7065 10.2488 12.1422 10.2397 12.6103 10.2304C13.0782 10.2213 13.5736 10.2121 14.0966 10.2029C14.6194 10.1938 15.1377 10.1892 15.6514 10.1892C17.0456 10.1892 18.2199 10.3635 19.1742 10.712C20.035 11.0032 20.8201 11.4827 21.4723 12.1155C22.0251 12.6641 22.4523 13.326 22.7244 14.0557C22.9819 14.7659 23.1123 15.5159 23.1097 16.2713C23.1097 17.7394 22.7703 18.9504 22.0914 19.9041C21.4081 20.8618 20.4476 21.5871 19.3393 21.982C18.1834 22.4133 16.899 22.5597 15.4863 22.5597C15.0826 22.5597 14.7982 22.5551 14.6332 22.546C14.468 22.5369 14.2203 22.5322 13.8901 22.532V28.0229C13.8949 28.0566 13.8919 28.0909 13.8812 28.1232C13.8704 28.1555 13.8523 28.1848 13.8283 28.2088C13.8043 28.2329 13.7749 28.251 13.7427 28.2618C13.7104 28.2725 13.6761 28.2756 13.6424 28.2708H10.3658C10.2373 28.2708 10.1732 28.1976 10.1732 28.0504ZM13.8901 13.5744V19.3102C14.1283 19.3287 14.3484 19.3379 14.5506 19.3378H15.4588C16.1271 19.3355 16.7909 19.2295 17.4267 19.0236C17.9718 18.8616 18.459 18.5464 18.8301 18.1154C19.1879 17.6936 19.3668 17.1065 19.3668 16.354C19.3813 15.8217 19.2428 15.2963 18.9677 14.8403C18.6785 14.3995 18.2605 14.0584 17.7706 13.8634C17.1309 13.6147 16.4476 13.4977 15.7615 13.5193C15.3212 13.5193 14.9313 13.5239 14.592 13.533C14.2522 13.5426 14.0183 13.5563 13.8901 13.5744ZM33.7508 18.2672C33.2335 18.0014 32.6826 17.807 32.1132 17.6892C31.4857 17.5453 30.8442 17.4714 30.2005 17.4691C29.8523 17.4596 29.5046 17.5013 29.1685 17.5928C28.9546 17.6405 28.7644 17.7624 28.6318 17.9369C28.5421 18.0765 28.4943 18.2389 28.4942 18.4048C28.4992 18.5657 28.5573 18.7205 28.6593 18.8451C28.82 19.0331 29.0164 19.1874 29.2371 19.2991C29.6295 19.5104 30.0339 19.6988 30.4482 19.8632C31.3718 20.1725 32.2544 20.593 33.0764 21.1155C33.6365 21.469 34.0999 21.9561 34.4251 22.533C34.6985 23.0792 34.8354 23.6836 34.8241 24.2944C34.8405 25.1008 34.6101 25.893 34.1636 26.5648C33.6856 27.2468 33.0216 27.777 32.2508 28.0923C31.4157 28.4591 30.3836 28.6426 29.1547 28.6427C28.3739 28.6506 27.5945 28.5768 26.8291 28.4226C26.226 28.312 25.6391 28.1271 25.0815 27.8721C25.0214 27.8411 24.9713 27.7935 24.9372 27.735C24.9031 27.6765 24.8863 27.6095 24.8889 27.5419V24.5696C24.8856 24.5404 24.8902 24.511 24.9024 24.4843C24.9145 24.4576 24.9336 24.4347 24.9578 24.4181C24.9814 24.4047 25.0085 24.3989 25.0355 24.4013C25.0626 24.4038 25.0882 24.4144 25.1091 24.4318C25.7675 24.8201 26.4825 25.1033 27.2282 25.2713C27.8855 25.4361 28.5597 25.5238 29.2373 25.5328C29.8793 25.5328 30.3517 25.4502 30.6545 25.285C30.7913 25.2224 30.907 25.1215 30.9876 24.9945C31.0682 24.8676 31.1103 24.72 31.1087 24.5696C31.1087 24.3314 30.9711 24.102 30.6959 23.8815C30.4207 23.6614 29.8611 23.3953 29.0171 23.0832C28.1529 22.7825 27.3335 22.366 26.5814 21.845C26.0434 21.4708 25.6004 20.976 25.2879 20.4C25.0172 19.8577 24.8804 19.2585 24.8889 18.6525C24.8873 17.9243 25.0873 17.2099 25.4667 16.5884C25.8993 15.9039 26.5206 15.3592 27.2557 15.0197C28.0629 14.6162 29.072 14.4144 30.2831 14.4142C30.9923 14.4085 31.701 14.459 32.4022 14.5655C32.91 14.6299 33.4064 14.7642 33.8774 14.9646C33.9148 14.9753 33.9492 14.9945 33.9779 15.0208C34.0066 15.047 34.0288 15.0796 34.0427 15.1159C34.0613 15.1831 34.0705 15.2526 34.0701 15.3224V18.1019C34.072 18.1342 34.0655 18.1665 34.051 18.1955C34.0365 18.2246 34.0147 18.2493 33.9877 18.2672C33.9509 18.2855 33.9103 18.295 33.8692 18.295C33.8281 18.295 33.7876 18.2855 33.7508 18.2672Z" fill="#31A8FF"/>
</g>
<defs>
<clipPath id="clip0_4_41">
<rect width="41.0256" height="40" fill="white" transform="translate(0.935181)"/>
</clipPath>
</defs>
</svg>
