<svg width="43" height="40" viewBox="0 0 43 40" fill="none" xmlns="http://www.w3.org/2000/svg">
<path d="M3.14374 9.43808C-0.55365 14.749 -0.0995848 21.6573 2.73022 27.2764C2.79508 27.4142 2.86806 27.552 2.94103 27.6818C2.97773 27.7714 3.0211 27.8581 3.07077 27.9412L3.15185 28.0791L3.2978 28.3467L3.56537 28.8088L3.72754 29.0602C3.82484 29.2224 3.93025 29.3845 4.03565 29.5467L4.1735 29.7575C4.31134 29.9764 4.45729 30.1954 4.61945 30.4062L4.69243 30.5116L5.10595 31.0629L5.26001 31.2575L5.6411 31.7278L5.78705 31.9062C5.95733 32.1089 6.13571 32.3116 6.3222 32.5062L6.85735 33.0738L7.03573 33.2441C7.17357 33.39 7.31141 33.5279 7.46547 33.6657L7.64385 33.836C7.83845 34.0225 8.02495 34.2009 8.22765 34.3711L8.32495 34.4603L8.8601 34.9144L9.07903 35.0928L9.53309 35.4414L9.77634 35.6198L10.2709 35.9847L10.4574 36.1144H10.5061L10.9926 36.4388L11.2034 36.5766L11.9656 37.0469L12.1764 37.1685C12.371 37.2739 12.5575 37.3874 12.7521 37.4847L13.0683 37.655L13.4818 37.8658H13.571L13.7413 37.9469L14.3981 38.255L14.5278 38.3118C14.7792 38.4253 15.0305 38.5226 15.29 38.628L15.4684 38.701L16.19 38.9686H16.2711L17.0819 39.228L17.2765 39.2848C17.5425 39.3752 17.8132 39.451 18.0874 39.5118C35.9257 42.7551 41.1474 28.7764 41.1474 28.7764C36.7851 34.4522 29.0417 35.9523 21.6875 34.2901C21.4199 34.2252 21.1523 34.136 20.8766 34.0549L20.7631 34.2171L19.9523 33.9576H19.8388L19.1414 33.6333L18.9468 33.5522C18.6874 33.4549 18.4441 33.3495 18.1928 33.2441L18.0468 33.1792L17.4144 32.8792L17.2279 32.79L16.7414 32.5468L16.417 32.3765L15.8251 32.0522C15.7651 32.0067 15.6997 31.9685 15.6305 31.9386L14.8684 31.4684L14.6575 31.3305L14.1467 30.9738L13.9683 30.8521L13.4656 30.471L13.2386 30.3008L12.7764 29.944L12.5737 29.7737C12.371 29.6116 12.1845 29.4575 11.998 29.2872L11.925 29.2386L11.325 28.6791L11.1548 28.5169L10.7169 28.0953L10.5466 27.9169C10.3601 27.7385 10.1818 27.5439 10.0115 27.3493L9.41147 26.7088L9.26552 26.5385L8.87632 26.0601L8.73037 25.8736C8.57631 25.679 8.43036 25.4763 8.28441 25.2736C4.23025 19.7275 2.74643 12.0652 5.99787 5.81366" fill="#0060A9"/>
<path d="M14.617 4.96228C11.9332 8.81373 12.0872 13.9463 14.171 18.0004C14.5159 18.6842 14.9088 19.3426 15.3467 19.9708C15.7308 20.6033 16.1881 21.1884 16.7089 21.7141C16.8954 21.9249 17.0981 22.1276 17.309 22.3384C17.3576 22.387 17.4144 22.4357 17.463 22.4925L18.0793 23.06C18.3063 23.2627 18.5414 23.4654 18.7928 23.6519L18.9549 23.7817L19.7009 24.333C19.8063 24.4141 19.9279 24.4871 20.0415 24.5601L20.2036 24.6655C20.382 24.7871 20.5685 24.9006 20.755 25.006H20.8361C20.9901 25.1033 21.1604 25.2006 21.3226 25.2817L21.501 25.379L21.8415 25.5574H21.8983L22.6037 25.8898L22.7659 25.9547L23.3497 26.1898L23.601 26.279L24.1443 26.4655L24.3875 26.5466C24.6523 26.6407 24.9232 26.7166 25.1984 26.7736C38.9825 29.0602 42.1772 18.4383 42.1772 18.4383C39.3068 22.5735 33.7445 24.5439 27.8173 23.0033C27.5498 22.9384 27.2903 22.8573 27.0065 22.7762L26.7795 22.7033L26.2281 22.5168L25.9767 22.4195L25.3929 22.1843L25.2389 22.1195L24.5173 21.787L24.1524 21.6005L24.0064 21.5924C23.8443 21.5113 23.6983 21.4222 23.5443 21.333L23.447 21.2438C23.2605 21.1303 23.0659 21.0167 22.8956 20.9032L22.7253 20.7897L22.3848 20.587L21.6469 20.0437L21.4766 19.9059C18.8156 17.8665 16.8364 15.0673 15.8008 11.8787C15.2624 10.2349 15.0723 8.49701 15.2426 6.77573C15.413 5.05444 15.9399 3.3875 16.79 1.88112" fill="#0060A9"/>
<path d="M24.2578 1.62166C23.5014 2.75448 23.0458 4.06113 22.9337 5.41863C22.8216 6.77612 23.0569 8.13981 23.6172 9.38132C24.2125 10.7298 25.0747 11.9437 26.1519 12.9499C27.2292 13.956 28.499 14.7336 29.8849 15.2355L30.2255 15.3571L30.3796 15.4058C30.5417 15.4544 30.7039 15.5193 30.8661 15.5517C38.4879 17.0193 40.5474 11.6354 41.1069 10.8489C39.2906 13.4517 36.2419 14.0922 32.5201 13.176C32.2153 13.0974 31.9149 13.0026 31.6201 12.8922C31.2531 12.7624 30.8932 12.6136 30.5417 12.4463C29.8802 12.1296 29.2527 11.7466 28.6687 11.303C25.3281 8.76509 23.2523 3.93253 25.4254 0" fill="#0060A9"/>
</svg>
