<svg width="27" height="40" viewBox="0 0 27 40" fill="none" xmlns="http://www.w3.org/2000/svg">
<g clip-path="url(#clip0_4_8)">
<path d="M6.86894 40C10.5606 40 13.5568 37.0133 13.5568 33.3333V26.6667H6.86894C3.17725 26.6667 0.181091 29.6533 0.181091 33.3333C0.181091 37.0133 3.17725 40 6.86894 40Z" fill="#0ACF83"/>
<path d="M0.181091 20C0.181091 16.32 3.17725 13.3333 6.86894 13.3333H13.5568V26.6667H6.86894C3.17725 26.6667 0.181091 23.68 0.181091 20Z" fill="#A259FF"/>
<path d="M0.181091 6.66667C0.181091 2.98667 3.17725 0 6.86894 0H13.5568V13.3333H6.86894C3.17725 13.3333 0.181091 10.3467 0.181091 6.66667Z" fill="#F24E1E"/>
<path d="M13.5568 0H20.2446C23.9363 0 26.9325 2.98667 26.9325 6.66667C26.9325 10.3467 23.9363 13.3333 20.2446 13.3333H13.5568V0Z" fill="#FF7262"/>
<path d="M26.9325 20C26.9325 23.68 23.9363 26.6667 20.2446 26.6667C16.5529 26.6667 13.5568 23.68 13.5568 20C13.5568 16.32 16.5529 13.3333 20.2446 13.3333C23.9363 13.3333 26.9325 16.32 26.9325 20Z" fill="#1ABCFE"/>
</g>
<defs>
<clipPath id="clip0_4_8">
<rect width="26.7568" height="40" fill="white" transform="translate(0.178406)"/>
</clipPath>
</defs>
</svg>
