<svg width="41" height="40" viewBox="0 0 41 40" fill="none" xmlns="http://www.w3.org/2000/svg">
<g clip-path="url(#clip0_4_49)">
<path fill-rule="evenodd" clip-rule="evenodd" d="M20.1784 0C9.12841 0 0.178406 8.95 0.178406 20C0.178406 28.85 5.90341 36.325 13.8534 38.975C14.8534 39.15 15.2284 38.55 15.2284 38.025C15.2284 37.55 15.2034 35.975 15.2034 34.3C10.1784 35.225 8.87841 33.075 8.47841 31.95C8.25341 31.375 7.27841 29.6 6.42841 29.125C5.72841 28.75 4.72841 27.825 6.40341 27.8C7.97841 27.775 9.10341 29.25 9.47841 29.85C11.2784 32.875 14.1534 32.025 15.3034 31.5C15.4784 30.2 16.0034 29.325 16.5784 28.825C12.1284 28.325 7.47841 26.6 7.47841 18.95C7.47841 16.775 8.25341 14.975 9.52841 13.575C9.32841 13.075 8.62841 11.025 9.72841 8.275C9.72841 8.275 11.4034 7.75 15.2284 10.325C16.8284 9.875 18.5284 9.65 20.2284 9.65C21.9284 9.65 23.6284 9.875 25.2284 10.325C29.0534 7.725 30.7284 8.275 30.7284 8.275C31.8284 11.025 31.1284 13.075 30.9284 13.575C32.2034 14.975 32.9784 16.75 32.9784 18.95C32.9784 26.625 28.3034 28.325 23.8534 28.825C24.5784 29.45 25.2034 30.65 25.2034 32.525C25.2034 35.2 25.1784 37.35 25.1784 38.025C25.1784 38.55 25.5534 39.175 26.5534 38.975C30.5238 37.6346 33.9738 35.0829 36.418 31.6791C38.8622 28.2752 40.1773 24.1905 40.1784 20C40.1784 8.95 31.2284 0 20.1784 0Z" fill="black"/>
</g>
<defs>
<clipPath id="clip0_4_49">
<rect width="40" height="40" fill="white" transform="translate(0.178406)"/>
</clipPath>
</defs>
</svg>
